<svg xmlns="http://www.w3.org/2000/svg" width="38" height="20.414" viewBox="0 0 38 20.414">
  <g id="Crown" transform="translate(-9.115 -33.586)">
    <path id="Path_24" data-name="Path 24" d="M47.862,42.938,39.586,34l-5.345,5.772L28.9,34l-5.345,5.772L18.207,34,12,40.7V43.31H47.862Z" transform="translate(-1.816)" fill="#e09826"/>
    <path id="Path_25" data-name="Path 25" d="M47.862,34V51.586A63.561,63.561,0,0,1,29.5,54h-.259A70.459,70.459,0,0,1,12,51.586V34l5.69,6.145L23.379,34l5.862,6.331L35.1,34l6.379,6.9Z" transform="translate(-1.816)" fill="#fbc46e"/>
    <path id="Path_26" data-name="Path 26" d="M29.241,40.331V54A70.459,70.459,0,0,1,12,51.586V34l5.69,6.145L23.379,34Z" transform="translate(-1.816)" fill="#fbb850"/>
    <ellipse id="Ellipse_12" data-name="Ellipse 12" cx="1" cy="1.5" rx="1" ry="1.5" transform="translate(21.115 38)" fill="#fe6759"/>
    <circle id="Ellipse_13" data-name="Ellipse 13" cx="1.5" cy="1.5" r="1.5" transform="translate(32.115 38)" fill="#fe6759"/>
    <ellipse id="Ellipse_14" data-name="Ellipse 14" cx="1" cy="1.5" rx="1" ry="1.5" transform="translate(45.115 38)" fill="#fe6759"/>
    <ellipse id="Ellipse_15" data-name="Ellipse 15" cx="1" cy="1.5" rx="1" ry="1.5" transform="translate(9.115 38)" fill="#fe6759"/>
    <path id="Path_27" data-name="Path 27" d="M47.862,63.05v1.89l-1.91-1.79L43,65.908,40.059,63.15l-2.945,2.759L34.169,63.15l-2.941,2.759L28.9,63.726l-.614-.576-2.941,2.759L22.4,63.15l-2.945,2.759L16.507,63.15l-2.941,2.759L12,64.443V62.55l1.566,1.469,2.941-2.759,2.945,2.759L22.4,61.26l2.945,2.759,2.941-2.759.614.576,2.331,2.183,2.941-2.759,2.945,2.759,2.945-2.759L43,64.019l2.948-2.759Z" transform="translate(-1.816 -17.86)" fill="#fe6759"/>
    <path id="Path_28" data-name="Path 28" d="M28.9,61.836v1.89l-.614-.576-2.941,2.759L22.4,63.15l-2.945,2.759L16.507,63.15l-2.941,2.759L12,64.443V62.55l1.566,1.469,2.941-2.759,2.945,2.759L22.4,61.26l2.945,2.759,2.941-2.759Z" transform="translate(-1.816 -17.86)" fill="#de5050"/>
    <line id="Line_1" data-name="Line 1" x2="5" y2="5" transform="translate(22.115 36)" fill="none" stroke="#fbd597" stroke-linecap="round" stroke-linejoin="round" stroke-width="2"/>
    <line id="Line_2" data-name="Line 2" x2="6" y2="6" transform="translate(33.115 35)" fill="none" stroke="#fbd597" stroke-linecap="round" stroke-linejoin="round" stroke-width="2"/>
    <line id="Line_3" data-name="Line 3" x2="3" y2="3" transform="translate(11.115 37)" fill="none" stroke="#fbd597" stroke-linecap="round" stroke-linejoin="round" stroke-width="2"/>
  </g>
</svg>
