<svg xmlns="http://www.w3.org/2000/svg" width="34" height="18.326" viewBox="0 0 34 18.326">
  <g id="Crown" transform="translate(-9.058 -33.509)">
    <path id="Path_24" data-name="Path 24" d="M43.979,41.97,36.6,34l-4.766,5.147L27.067,34,22.3,39.147,17.535,34,12,39.978V42.3H43.979Z" transform="translate(-1.932)" fill="#e09826"/>
    <path id="Path_25" data-name="Path 25" d="M43.979,34V49.682a56.679,56.679,0,0,1-16.374,2.152h-.231A62.831,62.831,0,0,1,12,49.682V34l5.074,5.48L22.147,34l5.227,5.646L32.6,34l5.689,6.15Z" transform="translate(-1.932)" fill="#fbc46e"/>
    <path id="Path_26" data-name="Path 26" d="M27.375,39.646V51.835A62.831,62.831,0,0,1,12,49.682V34l5.074,5.48L22.147,34Z" transform="translate(-1.932)" fill="#fbb850"/>
    <circle id="Ellipse_12" data-name="Ellipse 12" cx="1" cy="1" r="1" transform="translate(20.058 37.917)" fill="#fe6759"/>
    <circle id="Ellipse_13" data-name="Ellipse 13" cx="1" cy="1" r="1" transform="translate(30.058 37.917)" fill="#fe6759"/>
    <circle id="Ellipse_14" data-name="Ellipse 14" cx="1" cy="1" r="1" transform="translate(41.058 37.917)" fill="#fe6759"/>
    <circle id="Ellipse_15" data-name="Ellipse 15" cx="1" cy="1" r="1" transform="translate(9.058 37.917)" fill="#fe6759"/>
    <path id="Path_27" data-name="Path 27" d="M43.979,62.856v1.685l-1.7-1.6-2.629,2.46-2.626-2.46-2.626,2.46-2.626-2.46-2.623,2.46-2.079-1.946-.547-.514L23.9,65.405l-2.626-2.46-2.626,2.46-2.626-2.46L13.4,65.405,12,64.1V62.41l1.4,1.31,2.623-2.46,2.626,2.46,2.626-2.46L23.9,63.72l2.623-2.46.547.514,2.079,1.946,2.623-2.46,2.626,2.46,2.626-2.46,2.626,2.46,2.629-2.46Z" transform="translate(-1.932 -18.878)" fill="#fe6759"/>
    <path id="Path_28" data-name="Path 28" d="M27.067,61.774v1.685l-.547-.514L23.9,65.405l-2.626-2.46-2.626,2.46-2.626-2.46L13.4,65.405,12,64.1V62.41l1.4,1.31,2.623-2.46,2.626,2.46,2.626-2.46L23.9,63.72l2.623-2.46Z" transform="translate(-1.932 -18.878)" fill="#de5050"/>
    <line id="Line_1" data-name="Line 1" x2="4" y2="4" transform="translate(21.058 35.917)" fill="none" stroke="#fbd597" stroke-linecap="round" stroke-linejoin="round" stroke-width="2"/>
    <line id="Line_2" data-name="Line 2" x2="6" y2="5" transform="translate(30.058 34.917)" fill="none" stroke="#fbd597" stroke-linecap="round" stroke-linejoin="round" stroke-width="2"/>
    <line id="Line_3" data-name="Line 3" x2="3" y2="2" transform="translate(11.058 36.917)" fill="none" stroke="#fbd597" stroke-linecap="round" stroke-linejoin="round" stroke-width="2"/>
  </g>
</svg>
