<svg id="Group_63" data-name="Group 63" xmlns="http://www.w3.org/2000/svg" xmlns:xlink="http://www.w3.org/1999/xlink" width="72.559" height="72.559" viewBox="0 0 72.559 72.559">
  <defs>
    <clipPath id="clip-path">
      <path id="Path_291" data-name="Path 291" d="M36.281,0a2.17,2.17,0,0,0-1.539.637l-34.1,34.1a2.174,2.174,0,0,0,0,3.076l34.1,34.1a2.168,2.168,0,0,0,1.524.638H36.3a2.169,2.169,0,0,0,1.524-.638l34.1-34.1a2.167,2.167,0,0,0,.636-1.523v-.029a2.169,2.169,0,0,0-.636-1.524L37.819.637A2.171,2.171,0,0,0,36.281,0Z" transform="translate(0)" fill="none"/>
    </clipPath>
    <linearGradient id="linear-gradient" x1="0.148" y1="0.853" x2="0.15" y2="0.853" gradientUnits="objectBoundingBox">
      <stop offset="0" stop-color="#fe9d2b"/>
      <stop offset="1" stop-color="#ffdf00"/>
    </linearGradient>
    <clipPath id="clip-path-2">
      <rect id="Rectangle_236" data-name="Rectangle 236" width="72.559" height="72.559" fill="none"/>
    </clipPath>
  </defs>
  <g id="Group_488" data-name="Group 488" transform="translate(0)">
    <g id="Group_487" data-name="Group 487" clip-path="url(#clip-path)">
      <rect id="Rectangle_235" data-name="Rectangle 235" width="102.764" height="102.764" transform="translate(-36.492 36.279) rotate(-45)" fill="url(#linear-gradient)"/>
    </g>
  </g>
  <g id="Group_490" data-name="Group 490">
    <g id="Group_489" data-name="Group 489" clip-path="url(#clip-path-2)">
      <path id="Path_292" data-name="Path 292" d="M43.01,77.792l-31.2-31.2a2.535,2.535,0,0,1,0-3.584l31.2-31.2a2.536,2.536,0,0,1,3.585,0l31.2,31.2a2.535,2.535,0,0,1,0,3.584l-31.2,31.2a2.537,2.537,0,0,1-3.585,0m2.816-65.215a1.449,1.449,0,0,0-2.046,0l-31.2,31.2a1.45,1.45,0,0,0,0,2.046l31.2,31.2a1.449,1.449,0,0,0,2.046,0l31.2-31.2a1.449,1.449,0,0,0,0-2.046Z" transform="translate(-8.523 -8.521)" fill="#1a1818"/>
      <path id="Path_293" data-name="Path 293" d="M83.51,108.652h2.221a7.3,7.3,0,0,1,3.195.534,4.166,4.166,0,0,1,1.721,1.731,6.085,6.085,0,0,1,.3,4.9A4.354,4.354,0,0,1,89.9,117.4a3.68,3.68,0,0,1-1.441.871,10.314,10.314,0,0,1-2.693.242H83.51Zm1.863,1.81v6.219h.87a4.367,4.367,0,0,0,1.867-.3,2.245,2.245,0,0,0,.949-.993,3.652,3.652,0,0,0,.368-1.718,3.264,3.264,0,0,0-.878-2.434,3.522,3.522,0,0,0-2.539-.778Z" transform="translate(-64.299 -83.657)" fill="#1a1818"/>
      <path id="Path_294" data-name="Path 294" d="M125.264,108.652h5.382v1.836h-3.519v1.782h3.519v1.8h-3.519v2.592h3.519v1.844h-5.382Z" transform="translate(-96.448 -83.657)" fill="#1a1818"/>
      <path id="Path_295" data-name="Path 295" d="M156.613,108.652h1.9l3.792,9.858h-1.951l-.77-2.032h-4.022l-.8,2.032h-1.949Zm.961,2.613-1.322,3.385h2.637Z" transform="translate(-117.658 -83.657)" fill="#1a1818"/>
      <path id="Path_296" data-name="Path 296" d="M200.432,108.652h2.223a7.311,7.311,0,0,1,3.194.534,4.163,4.163,0,0,1,1.72,1.731,6.074,6.074,0,0,1,.3,4.9,4.356,4.356,0,0,1-1.045,1.584,3.687,3.687,0,0,1-1.443.871,10.3,10.3,0,0,1-2.691.242h-2.257Zm1.863,1.81v6.219h.872a4.373,4.373,0,0,0,1.867-.3,2.233,2.233,0,0,0,.947-.993,3.627,3.627,0,0,0,.368-1.718,3.264,3.264,0,0,0-.878-2.434,3.519,3.519,0,0,0-2.539-.778Z" transform="translate(-154.324 -83.657)" fill="#1a1818"/>
      <path id="Path_297" data-name="Path 297" d="M83.553,163.559h7.452V166.1H86.133v2.468h4.872v2.5H86.133v3.592h4.872v2.553H83.553Z" transform="translate(-64.332 -125.933)" fill="#1a1818"/>
      <path id="Path_298" data-name="Path 298" d="M126.519,163.559h2.494l5.842,8.985v-8.985h2.6v13.654h-2.5l-5.834-8.956v8.956h-2.6Z" transform="translate(-97.414 -125.933)" fill="#1a1818"/>
      <path id="Path_299" data-name="Path 299" d="M187.662,163.559h3.079a10.151,10.151,0,0,1,4.424.739,5.762,5.762,0,0,1,2.382,2.4,8.431,8.431,0,0,1,.414,6.779,6.057,6.057,0,0,1-1.447,2.195,5.1,5.1,0,0,1-2,1.206,14.167,14.167,0,0,1-3.726.335h-3.127Zm2.581,2.506v8.614h1.206a6.014,6.014,0,0,0,2.585-.41,3.1,3.1,0,0,0,1.311-1.374,5.02,5.02,0,0,0,.512-2.379,4.524,4.524,0,0,0-1.216-3.372,4.872,4.872,0,0,0-3.517-1.078Z" transform="translate(-144.491 -125.933)" fill="#1a1818"/>
    </g>
  </g>
</svg>
