<svg xmlns="http://www.w3.org/2000/svg" xmlns:xlink="http://www.w3.org/1999/xlink" width="53.656" height="46.526" viewBox="0 0 53.656 46.526">
  <defs>
    <linearGradient id="linear-gradient" y1="0.5" x2="1" y2="0.5" gradientUnits="objectBoundingBox">
      <stop offset="0"/>
      <stop offset="1" stop-color="#fff" stop-opacity="0"/>
    </linearGradient>
  </defs>
  <g id="Group_48" data-name="Group 48" transform="translate(-30.29 -60.28)">
    <g id="Group_47" data-name="Group 47" transform="translate(30.29 60.28)">
      <g id="XMLID_1_" transform="translate(0 0)">
        <g id="Group_45" data-name="Group 45" transform="translate(0 0)">
          <path id="Path_6" data-name="Path 6" d="M140.689,419.141v.54a1.772,1.772,0,0,1-1.772,1.772H106.5a1.772,1.772,0,0,1-1.772-1.772v-.54a1.771,1.771,0,0,1,1.772-1.771h32.415A1.771,1.771,0,0,1,140.689,419.141Z" transform="translate(-95.882 -374.927)" fill="#c98b0e"/>
          <path id="Path_7" data-name="Path 7" d="M140.689,419.141v.54a1.745,1.745,0,0,1-.1.581,1.771,1.771,0,0,0-1.674-1.189H106.5a1.771,1.771,0,0,0-1.674,1.189,1.745,1.745,0,0,1-.1-.581v-.54a1.771,1.771,0,0,1,1.772-1.771h32.415A1.771,1.771,0,0,1,140.689,419.141Z" transform="translate(-95.882 -374.927)" opacity="0.2"/>
          <path id="Path_8" data-name="Path 8" d="M37.473,174.605a3.836,3.836,0,1,1,.486-1.871A3.839,3.839,0,0,1,37.473,174.605Z" transform="translate(-30.29 -155.99)" fill="#2fc1f1"/>
          <path id="Path_9" data-name="Path 9" d="M217.168,60.28a5.238,5.238,0,1,1-5.238,5.238A5.238,5.238,0,0,1,217.168,60.28Z" transform="translate(-190.341 -60.28)" fill="#dd6475"/>
          <g id="Group_42" data-name="Group 42" transform="translate(22.735 1.146)">
            <path id="Path_10" data-name="Path 10" d="M222.106,74.547a.535.535,0,0,1-.535-.535,4.1,4.1,0,0,1,4.092-4.092.535.535,0,1,1,0,1.07,3.026,3.026,0,0,0-3.022,3.022A.535.535,0,0,1,222.106,74.547Z" transform="translate(-221.571 -69.92)" fill="#fff"/>
          </g>
          <path id="Path_11" data-name="Path 11" d="M417.676,174.605a3.832,3.832,0,1,1,2.4,1.845A3.822,3.822,0,0,1,417.676,174.605Z" transform="translate(-371.204 -155.99)" fill="#77d379"/>
          <path id="Path_12" data-name="Path 12" d="M114.627,157.752h0l-5.617,21.982H76.157L70.54,157.753h0a3.839,3.839,0,0,0,2.4-1.845,14.389,14.389,0,0,0,18.693-8.225v0a5.268,5.268,0,0,0,1.9,0v0a14.389,14.389,0,0,0,18.693,8.225A3.839,3.839,0,0,0,114.627,157.752Z" transform="translate(-65.756 -137.292)" fill="#ffc035"/>
          <g id="Group_43" data-name="Group 43" transform="translate(46.6 13.523)">
            <path id="Path_13" data-name="Path 13" d="M422.885,177.814a.535.535,0,0,1-.535-.535,3.225,3.225,0,0,1,3.222-3.222.535.535,0,1,1,0,1.07,2.154,2.154,0,0,0-2.152,2.152A.535.535,0,0,1,422.885,177.814Z" transform="translate(-422.35 -174.057)" fill="#fff"/>
          </g>
          <g id="Group_44" data-name="Group 44" transform="translate(0.613 13.523)">
            <path id="Path_14" data-name="Path 14" d="M35.979,177.814a.535.535,0,0,1-.535-.535,3.225,3.225,0,0,1,3.222-3.222.535.535,0,1,1,0,1.07,2.154,2.154,0,0,0-2.152,2.152A.535.535,0,0,1,35.979,177.814Z" transform="translate(-35.444 -174.057)" fill="#fff"/>
          </g>
        </g>
        <g id="Group_46" data-name="Group 46">
          <path id="Path_15" data-name="Path 15" d="M392.36,254.412h.219L398.2,232.43" transform="translate(-349.325 -211.968)" fill="none"/>
          <path id="Path_16" data-name="Path 16" d="M70.54,232.43l5.617,21.982h.219" transform="translate(-65.756 -211.968)" fill="none"/>
          <path id="Path_17" data-name="Path 17" d="M90.71,155.925h0A14.389,14.389,0,0,0,109.4,147.7" transform="translate(-83.529 -137.309)" fill="none"/>
          <path id="Path_18" data-name="Path 18" d="M264.01,147.7a14.389,14.389,0,0,0,18.693,8.225h0" transform="translate(-236.23 -137.309)" fill="none"/>
          <path id="Path_19" data-name="Path 19" d="M216.216,70.668a5.267,5.267,0,1,1,.952.087A5.238,5.238,0,0,1,216.216,70.668Z" transform="translate(-190.341 -60.28)" fill="none"/>
          <path id="Path_20" data-name="Path 20" d="M35.074,176.45a3.831,3.831,0,1,1,2.4-1.845A3.842,3.842,0,0,1,35.074,176.45Z" transform="translate(-30.29 -155.99)" fill="none"/>
          <path id="Path_21" data-name="Path 21" d="M417.676,174.605a3.832,3.832,0,1,1,2.4,1.845A3.822,3.822,0,0,1,417.676,174.605Z" transform="translate(-371.204 -155.99)" fill="none"/>
          <path id="Path_22" data-name="Path 22" d="M138.917,417.37a1.771,1.771,0,0,1,1.772,1.771v.54a1.772,1.772,0,0,1-1.772,1.772H106.5a1.772,1.772,0,0,1-1.772-1.772v-.54a1.771,1.771,0,0,1,1.772-1.771Z" transform="translate(-95.882 -374.927)" fill="none"/>
        </g>
      </g>
    </g>
    <path id="Path_23" data-name="Path 23" d="M278.043,157.752h0l-5.617,21.982H256V147.767a5.235,5.235,0,0,0,.952-.087v0a14.389,14.389,0,0,0,18.693,8.225A3.839,3.839,0,0,0,278.043,157.752Z" transform="translate(-198.882 -77.012)" opacity="0.1" fill="url(#linear-gradient)"/>
  </g>
</svg>
